# xmcd CD database file
#
# Track frame offsets:
#	150
#	24742
#	41057
#	59664
#	72843
#	85848
#	113040
#	132876
#	153136
#	171195
#	188283
#	203131
#	214938
#	238006
#	250183
#
# Disc length: 3555 seconds
#
# Revision: 0
# Processed by: cddbd v1.5.1PL2 Copyright (c) Steve Scherf et al.
# Submitted via: CDex 1.50
#
DISCID=cc0de10f
DTITLE=Miracle - Miracle 'GOLD' new
DYEAR=2002
DGENRE=New Age
TTITLE0=Dave Brubeck - Take Five
TTITLE1=Francis Lai - Treize Jours En France
TTITLE2=S.E.N.S - Rainbow On The Moon
TTITLE3=Henry Mancini and The Mancini Pops Orchestra - Love Theme
TTITLE4=Secret Garden - Adagio
TTITLE5=David Lanz - Cristofori`s Dream
TTITLE6=Brian Crain  - A Walk In The Forest
TTITLE7=Yanni - Before I Go
TTITLE8=Kyoko Fukada - Into The Night
TTITLE9=Joe Hisashi - Gene
TTITLE10=Frank Mills - Music Box Dancer
TTITLE11=Paul Mauriat - Love Is Blue
TTITLE12=Earl Klugh - Across The Sand
TTITLE13=Joao Donato - Samba De Orfeu
TTITLE14=Vanessa Mae - Toccata and FUgue in D minor
EXTD=YEAR: 2002
EXTT0=
EXTT1=
EXTT2=
EXTT3=
EXTT4=
EXTT5=
EXTT6=
EXTT7=
EXTT8=
EXTT9=
EXTT10=
EXTT11=
EXTT12=
EXTT13=
EXTT14=
PLAYORDER=
